<?xml version="1.0" standalone="no"?><!DOCTYPE svg PUBLIC "-//W3C//DTD SVG 1.1//EN" "http://www.w3.org/Graphics/SVG/1.1/DTD/svg11.dtd"><svg t="1586316267759" class="icon" viewBox="0 0 1024 1024" version="1.1" xmlns="http://www.w3.org/2000/svg" p-id="3813" xmlns:xlink="http://www.w3.org/1999/xlink" width="200" height="200"><defs><style type="text/css"></style></defs><path d="M781.152 517.547c1.35 140.502 129.231 187.259 130.72 187.907-1.162 3.216-20.492 66.642-67.481 132.167-40.604 56.626-82.659 112.933-149.023 114.093-65.292 1.165-86.199-36.882-160.801-36.882-74.562 0-97.891 35.723-159.597 38.048-63.984 2.329-112.789-61.102-153.729-117.497-83.732-115.399-147.627-326.037-61.751-468.213 42.612-70.649 118.847-115.307 201.509-116.514 62.918-1.073 122.337 40.467 160.71 40.467 38.513 0 110.649-49.921 186.511-42.612 31.716 1.26 120.898 12.201 178.13 92.025-4.563 2.839-106.41 59.285-105.201 177.010v0zM514.026 237.942c-7.358-53.414 20.211-108.929 51.695-143.808 35.161-39.259 94.487-68.457 143.481-70.32 6.287 54.393-16.716 109.020-50.667 148.37-34.043 39.216-89.836 69.81-144.507 65.758v0zM514.026 237.942z" p-id="3814" fill="#cdcdcd"></path></svg>