<?xml version="1.0" standalone="no"?><!DOCTYPE svg PUBLIC "-//W3C//DTD SVG 1.1//EN" "http://www.w3.org/Graphics/SVG/1.1/DTD/svg11.dtd"><svg t="1588129017701" class="icon" viewBox="0 0 1024 1024" version="1.1" xmlns="http://www.w3.org/2000/svg" p-id="2001" width="200" height="200" xmlns:xlink="http://www.w3.org/1999/xlink"><defs><style type="text/css"></style></defs><path d="M896 1024H128c-19.2 0-32-12.8-32-32s19.2-32 32-32h768c19.2 0 32 12.8 32 32s-12.8 32-32 32zM512 256C320 256 160 416 160 614.4V896h704V614.4C864 416 710.4 256 512 256z m128 281.6c-51.2 0-96-44.8-96-96s44.8-96 96-96 96 44.8 96 96-38.4 96-96 96zM518.4 0c-19.2 0-32 12.8-32 32v64c0 19.2 12.8 32 32 32s32-12.8 32-32v-64c0-19.2-12.8-32-32-32zM876.8 83.2c-12.8-12.8-32-12.8-44.8 0l-44.8 44.8c-12.8 12.8-12.8 32 0 44.8s32 12.8 44.8 0l44.8-44.8c12.8-12.8 12.8-32 0-44.8zM198.4 83.2c-12.8-12.8-32-12.8-44.8 0-12.8 12.8-12.8 32 0 44.8l44.8 44.8c12.8 12.8 32 12.8 44.8 0s12.8-32 0-44.8l-44.8-44.8z" fill="#cdcdcd" p-id="2002"></path></svg>