<?xml version="1.0" standalone="no"?><!DOCTYPE svg PUBLIC "-//W3C//DTD SVG 1.1//EN" "http://www.w3.org/Graphics/SVG/1.1/DTD/svg11.dtd"><svg t="1569307754589" class="icon" viewBox="0 0 1028 1024" version="1.1" xmlns="http://www.w3.org/2000/svg" p-id="4563" xmlns:xlink="http://www.w3.org/1999/xlink" width="200.78125" height="200"><defs><style type="text/css"></style></defs><path d="M598.857143 923.428571c-28.8-13.714286-34.285714-24.685714-31.085714-57.142857 10.971429-101.942857 64.457143-171.428571 163.2-208.914285-42.514286-27.428571-62.171429-65.828571-60.8-113.828572 0.914286-36.114286 16-65.828571 42.971428-90.057143 53.028571-47.542857 136.228571-40.685714 183.314286 15.085715 39.314286 46.628571 44.8 135.314286-31.085714 187.428571 2.285714 7.314286 9.142857 6.4 14.171428 8.685714 80 35.657143 130.285714 95.085714 144.914286 182.857143 0.457143 2.742857 2.285714 5.485714 3.657143 7.771429v36.571428c-6.857143 14.628571-18.285714 24.685714-32 32-132.114286-0.457143-264.685714-0.457143-397.257143-0.457143zM68.571429 109.714286c0.457143 74.514286 0.457143 149.485714 0.914285 224 0 150.857143 0.457143 301.714286-0.457143 452.571428 0 20.571429 5.942857 25.6 25.6 25.142857 135.771429-0.914286 271.085714 0 406.857143-0.914285 18.285714 0 25.142857 2.285714 21.942857 23.314285-6.857143 41.6-5.028571 42.057143-48 42.057143H32c-9.142857 0-18.285714 0.914286-27.428571 1.828572C4.571429 627.657143 4.571429 377.6 4.114286 128c0-16 3.657143-20.114286 18.742857-18.285714 15.085714 1.371429 30.628571 0 45.714286 0z" fill="" p-id="4564"></path><path d="M517.485714 491.428571c0 76.8-0.457143 153.6 0.457143 230.4 0 16.914286-4.571429 22.4-21.485714 21.942858-31.085714-1.371429-62.171429-0.914286-93.714286 0-12.8 0.457143-19.2-1.828571-19.2-16.914286 0.457143-155.885714 0.457143-311.771429 0-467.657143 0-12.8 3.657143-16.914286 16.914286-16.457143 32.914286 0.914286 65.371429 0.914286 98.285714 0 14.628571-0.457143 19.2 4.114286 19.2 19.2-0.914286 75.885714-0.457143 152.685714-0.457143 229.485714zM325.485714 617.142857c0 35.657143-0.457143 71.771429 0 107.428572 0.457143 12.8-2.285714 19.657143-17.371428 19.2-33.371429-0.914286-67.2-0.457143-100.571429 0-11.428571 0-16-3.2-16-15.542858 0.457143-75.428571 0.457143-150.857143 0-226.285714 0-12.342857 4.114286-15.542857 16-15.542857 33.371429 0.457143 67.2 0.914286 100.571429 0 15.085714-0.457143 17.828571 5.942857 17.371428 19.2-0.457143 37.028571 0 74.057143 0 111.542857zM896 399.085714c-37.942857-26.057143-75.885714-25.6-114.285714-23.771428-15.085714 0.914286-19.2-4.114286-18.742857-19.2 0.914286-53.485714 0.914286-106.514286 0-160 0-13.257143 2.742857-18.742857 17.371428-18.285715 33.371429 0.914286 67.2 0.457143 100.571429 0 9.6 0 15.542857 1.371429 15.542857 13.257143-0.457143 68.114286-0.457143 135.771429-0.457143 208zM573.257143 708.114286v-208.914286c0-37.485714 0.457143-74.514286-0.457143-112-0.457143-16 2.742857-23.314286 21.028571-22.4 31.085714 1.828571 62.171429 0 93.714286 0.457143 6.4 0 16.914286-4.571429 18.742857 6.857143 1.371429 8.685714 3.2 18.285714-5.485714 25.142857-2.285714 1.828571-5.028571 3.657143-7.314286 5.485714-74.057143 57.142857-88.228571 129.828571-54.4 229.028572 2.285714 5.942857 5.028571 10.514286-1.828571 15.085714-22.4 17.371429-39.771429 38.857143-64 61.257143z" fill="" p-id="4565"></path></svg>